<?xml version="1.0" standalone="no"?>
<!DOCTYPE svg PUBLIC "-//W3C//DTD SVG 20010904//EN"
 "http://www.w3.org/TR/2001/REC-SVG-20010904/DTD/svg10.dtd">
<svg version="1.0" xmlns="http://www.w3.org/2000/svg"
 width="350.000000pt" height="350.000000pt" viewBox="0 0 350.000000 350.000000"
 preserveAspectRatio="xMidYMid meet">

<g transform="translate(0.000000,350.000000) scale(0.100000,-0.100000)"
fill="#000000" stroke="none">
<path d="M1870 3480 c146 -17 237 -45 295 -90 6 -4 30 -15 55 -23 44 -16 44
-16 13 -17 -18 0 -33 -4 -33 -9 0 -5 15 -15 33 -22 31 -12 177 -107 262 -168
42 -31 57 -33 34 -5 -12 15 -12 18 0 22 8 3 34 23 58 45 l44 40 37 -20 c20
-11 64 -23 97 -26 40 -4 50 -3 30 2 -16 5 -44 9 -60 10 -50 2 -103 45 -115 94
-16 59 -53 113 -101 143 -23 14 -43 23 -45 21 -3 -2 7 -12 21 -21 27 -18 65
-84 65 -115 0 -19 -2 -19 -67 6 -57 22 -82 26 -158 25 -88 -1 -92 0 -180 43
-94 46 -175 66 -285 70 l-65 3 65 -8z m735 -162 c9 -49 0 -73 -35 -98 l-29
-20 16 31 c24 49 28 110 9 150 l-17 34 25 -29 c14 -17 28 -47 31 -68z m-108
13 c60 -23 67 -51 27 -118 l-27 -46 -13 39 c-16 49 -100 128 -151 143 -33 9
-29 10 39 6 42 -3 98 -13 125 -24z"/>
<path d="M1712 3468 c-24 -5 -42 -11 -40 -14 3 -2 34 2 69 10 35 8 53 14 39
14 -14 0 -45 -5 -68 -10z"/>
<path d="M1417 3455 c-57 -16 -78 -31 -27 -19 19 4 64 13 100 20 62 11 63 12
20 12 -25 0 -67 -6 -93 -13z"/>
<path d="M1626 3455 c25 -19 40 -19 24 0 -7 8 -20 15 -28 15 -13 0 -12 -3 4
-15z"/>
<path d="M1320 3420 c-8 -5 -10 -10 -5 -10 6 0 17 5 25 10 8 5 11 10 5 10 -5
0 -17 -5 -25 -10z"/>
<path d="M1858 3423 c7 -3 16 -2 19 1 4 3 -2 6 -13 5 -11 0 -14 -3 -6 -6z"/>
<path d="M1174 3336 c-33 -24 -70 -56 -84 -71 -14 -15 13 3 60 40 102 81 95
75 88 75 -3 0 -32 -20 -64 -44z"/>
<path d="M1915 3366 c-78 -19 -141 -55 -195 -112 -49 -52 -110 -158 -97 -170
3 -4 35 20 70 52 75 70 195 144 309 191 69 28 91 33 131 28 45 -5 65 6 31 19
-27 10 -196 5 -249 -8z"/>
<path d="M1332 3198 c-76 -92 -151 -207 -205 -313 -37 -75 -53 -121 -67 -200
-4 -27 -12 -59 -16 -70 -14 -40 15 1 87 120 106 177 181 286 272 394 44 53 85
99 91 103 6 4 7 10 3 14 -4 4 -16 -1 -27 -11 -35 -32 -168 -197 -220 -274 -27
-41 -50 -71 -50 -67 0 22 121 239 171 306 79 107 51 105 -39 -2z"/>
<path d="M2150 3189 c-107 -58 -243 -169 -227 -185 3 -4 34 19 69 51 73 66
177 129 239 146 43 11 61 7 132 -29 4 -2 7 1 7 7 0 17 -76 51 -112 51 -19 0
-64 -17 -108 -41z"/>
<path d="M2615 3184 c-20 -20 -34 -39 -30 -42 3 -3 25 13 48 36 23 23 36 42
30 42 -7 0 -29 -16 -48 -36z"/>
<path d="M2879 3175 c30 -14 82 -52 116 -84 84 -78 176 -124 230 -115 22 3 48
11 58 16 27 14 33 1 11 -23 -29 -32 -69 -49 -119 -51 -39 -2 -43 -4 -31 -18 7
-8 43 -52 79 -96 37 -45 79 -86 94 -92 16 -5 46 -17 68 -26 l40 -15 -41 0
c-51 -1 -121 23 -151 51 -29 27 -38 19 -18 -18 52 -100 59 -336 14 -449 l-24
-60 -5 70 c-4 49 -15 90 -36 135 -31 65 -181 278 -198 279 -4 1 -6 -11 -2 -26
21 -95 15 -93 -37 12 -29 61 -65 129 -80 151 -14 23 -23 46 -19 50 4 5 0 4 -7
-3 -12 -10 -9 -21 18 -70 51 -92 118 -237 147 -318 15 -41 31 -75 35 -75 12 0
12 0 -7 104 -8 48 -13 90 -11 92 8 9 67 -82 67 -105 0 -46 12 -101 22 -101 6
0 8 20 6 45 -2 25 -2 45 -2 45 8 0 55 -95 69 -136 16 -50 16 -54 -8 -141 -23
-82 -42 -133 -51 -133 -2 0 -3 28 -2 63 1 83 -15 208 -25 201 -5 -3 -9 -22 -9
-43 0 -35 -36 -158 -58 -197 -6 -12 -11 15 -15 87 -6 123 -23 171 -126 376
-38 76 -75 157 -81 180 -6 23 -16 45 -22 49 -8 5 -9 -42 -5 -177 6 -167 19
-261 52 -393 8 -28 7 -28 -16 -13 -24 16 -155 157 -145 157 2 0 12 -7 21 -16
27 -28 29 -7 2 25 -27 32 -79 158 -97 232 -5 24 -13 101 -17 172 -3 72 -10
127 -16 127 -6 0 -8 -50 -5 -137 5 -121 9 -150 37 -233 18 -52 35 -99 39 -105
4 -6 -2 -2 -12 10 -34 36 -75 138 -86 210 -5 39 -10 130 -10 203 0 81 -4 132
-10 132 -12 0 -12 4 -15 -272 -3 -184 -6 -230 -18 -242 -12 -13 -16 -6 -25 53
-7 37 -15 144 -18 237 -6 160 -5 175 20 277 30 125 29 117 16 117 -11 0 -23
-42 -52 -180 -25 -119 -46 -157 -142 -259 -61 -63 -108 -96 -120 -84 -3 4 -6
24 -6 45 0 21 -4 38 -10 38 -6 0 -10 -47 -10 -120 l0 -120 -29 0 c-26 0 -29 4
-40 57 -6 31 -11 70 -11 87 0 24 -2 28 -12 17 -20 -19 -16 -230 6 -313 10 -37
16 -78 14 -90 -3 -19 -8 -14 -32 31 -21 41 -31 82 -43 175 -8 66 -17 123 -18
125 -10 10 -25 -14 -25 -38 0 -98 -216 -382 -358 -469 l-52 -32 35 53 c44 67
84 177 130 358 34 136 114 390 136 431 14 25 22 98 11 98 -8 0 -132 -184 -161
-237 -17 -32 3 -29 28 5 16 21 13 8 -14 -66 -45 -127 -71 -233 -93 -387 -10
-71 -27 -146 -37 -165 -10 -19 -43 -60 -73 -92 -30 -32 -49 -58 -41 -58 12 0
51 8 127 25 20 5 22 2 22 -40 0 -61 25 -178 62 -295 28 -88 47 -129 128 -280
16 -30 27 -57 24 -59 -9 -9 -195 183 -240 248 -113 160 -179 349 -205 585 -12
110 -10 152 17 279 11 47 -10 28 -43 -41 -17 -37 -50 -85 -72 -108 -48 -48
-173 -114 -216 -114 -28 0 -25 3 35 44 139 93 226 198 294 352 49 112 82 169
143 249 53 68 57 93 11 61 -37 -26 -175 -184 -235 -268 -30 -43 -56 -78 -58
-78 -5 0 11 60 28 105 19 54 94 203 119 238 11 16 18 31 14 34 -18 18 -121
-171 -165 -302 -16 -49 -39 -138 -49 -198 -21 -118 -21 -118 -126 -184 l-51
-32 -3 46 c-3 41 5 121 24 251 10 64 -11 52 -25 -15 -6 -31 -11 -68 -11 -83 0
-14 -18 -63 -39 -107 -63 -131 -110 -288 -120 -406 -5 -56 -7 -105 -5 -109 9
-14 -16 -18 -41 -6 -39 18 -117 156 -166 297 -18 50 -18 58 -3 129 8 41 26
105 39 141 13 36 22 67 20 69 -9 9 -24 -10 -30 -39 -11 -51 -127 -110 -214
-109 l-36 1 45 23 c65 35 133 98 158 148 11 24 28 83 37 132 19 106 35 131
224 354 66 78 121 145 121 148 0 4 -20 -12 -45 -35 -37 -34 -51 -41 -85 -41
-49 0 -151 34 -163 55 -4 8 -15 15 -23 15 -8 0 -26 7 -40 16 -13 9 -27 15 -29
12 -2 -2 32 -25 75 -51 69 -42 145 -67 203 -67 4 0 -32 -48 -80 -107 -156
-191 -155 -189 -179 -318 -8 -44 -20 -92 -25 -107 -21 -53 -148 -152 -210
-165 -49 -9 -13 -23 62 -23 54 0 77 6 125 30 32 16 59 28 61 27 1 -2 -5 -25
-13 -52 -8 -28 -16 -77 -17 -110 -3 -82 41 -187 161 -388 l94 -158 -10 -68
c-10 -69 -42 -151 -71 -185 -15 -18 -15 -18 6 -7 12 6 25 16 28 21 4 6 30 28
59 49 28 21 63 55 76 75 14 20 27 36 30 36 3 0 18 -37 33 -82 23 -69 27 -101
27 -185 0 -98 -12 -184 -29 -211 -6 -10 -15 -9 -45 3 -38 16 -66 9 -66 -17 0
-5 7 -2 16 6 11 12 20 13 35 6 10 -6 99 -38 196 -71 409 -138 463 -158 573
-209 63 -29 120 -56 125 -60 6 -4 79 -42 163 -85 85 -43 156 -83 158 -90 3 -7
-14 -59 -37 -116 -68 -171 -98 -265 -105 -326 -6 -61 0 -61 32 2 14 27 14 28
-1 11 -15 -19 -15 -19 -15 6 0 38 34 141 95 289 30 72 52 136 49 140 -3 5 -1
9 4 9 11 0 87 -54 96 -68 3 -5 11 -51 18 -102 6 -51 14 -88 16 -81 5 15 -17
174 -26 188 -11 16 -139 105 -219 152 -40 23 -73 45 -73 48 0 5 77 157 87 172
2 3 27 -3 55 -12 29 -9 54 -15 56 -13 2 2 -14 10 -35 16 -21 7 -76 30 -122 52
-96 43 -123 46 -63 5 21 -15 49 -38 61 -51 l21 -23 -42 -84 c-24 -46 -44 -86
-45 -88 -1 -2 -40 17 -87 43 -151 81 -278 133 -551 225 -147 49 -269 92 -272
95 -3 3 10 29 30 58 19 29 50 83 68 121 18 37 36 67 39 67 3 0 22 -26 42 -58
20 -31 51 -73 67 -92 l30 -35 -9 33 c-16 59 -14 193 4 262 10 36 21 81 27 102
8 30 15 38 47 47 35 10 33 10 -19 5 -54 -5 -57 -4 -110 39 -96 78 -189 222
-189 293 0 39 89 221 124 254 l27 25 36 -20 c55 -30 91 -90 114 -186 26 -109
112 -285 190 -388 62 -83 239 -251 264 -251 10 0 6 18 -15 63 -72 160 -116
389 -106 562 7 141 14 166 50 178 25 8 31 6 53 -22 31 -39 43 -39 43 -2 0 17
4 32 9 35 5 4 7 -10 4 -31 -9 -69 57 -135 151 -150 33 -5 36 -3 50 32 20 47
21 44 -9 55 -15 6 -25 17 -25 30 0 24 8 25 39 3 22 -15 25 -15 37 2 7 10 15
22 16 27 6 17 108 -18 211 -70 4 -2 4 3 1 11 -4 12 0 14 16 10 19 -5 21 -3 12
13 -17 32 -44 52 -102 72 -87 32 -197 53 -307 59 l-102 6 26 31 c14 17 38 57
54 89 l27 58 11 -34 c15 -45 67 -123 87 -131 12 -5 15 -2 10 11 -9 22 -9 200
0 214 3 6 30 -12 59 -40 71 -67 95 -68 55 -3 -16 26 -32 59 -36 75 -6 26 -5
27 37 26 24 0 77 -12 117 -27 l74 -27 30 -73 c19 -46 46 -89 75 -118 47 -49
66 -54 38 -10 -23 34 -47 148 -31 143 6 -2 33 -32 59 -68 68 -90 121 -143 201
-200 38 -27 62 -49 53 -49 -10 0 -17 -5 -17 -11 0 -7 10 -9 25 -5 16 4 34 0
49 -9 24 -16 24 -17 9 -53 -8 -20 -18 -41 -22 -45 -5 -4 -35 0 -69 9 -33 9
-68 14 -77 11 -36 -15 -57 -115 -34 -174 13 -36 59 -103 70 -103 5 0 -7 21
-27 48 -35 45 -36 47 -15 50 26 4 44 36 36 62 -5 15 -3 18 8 14 10 -3 18 2 22
16 9 30 49 23 53 -9 2 -13 -1 -28 -7 -34 -16 -16 -13 -27 6 -20 13 5 15 3 9
-13 -25 -61 -36 -124 -45 -244 -6 -74 -15 -152 -21 -174 -14 -45 -168 -276
-285 -426 -95 -121 -111 -137 -145 -143 l-25 -4 25 -2 c18 -1 37 11 61 37 58
61 152 181 219 280 34 50 65 92 69 92 3 -1 22 -33 41 -73 26 -53 46 -79 77
-101 47 -32 62 -30 41 6 -8 15 -12 57 -12 118 0 82 5 106 33 180 90 235 146
408 170 525 23 107 34 140 63 181 38 56 48 79 77 174 16 55 19 60 20 32 1 -18
-4 -43 -10 -55 -8 -18 -6 -17 14 5 34 37 67 129 76 214 9 75 -1 215 -18 273
-6 19 -9 36 -7 39 2 2 18 -4 36 -13 17 -9 52 -18 78 -21 40 -5 54 -1 90 22 23
16 42 33 42 37 0 5 -7 4 -15 -3 -22 -18 -127 -7 -165 17 -17 11 -57 53 -90 94
-62 78 -62 86 -3 88 47 2 124 95 123 148 -1 11 -6 6 -14 -13 -14 -31 -42 -47
-104 -59 -46 -9 -119 28 -214 109 -73 62 -143 106 -170 106 -7 0 11 -11 41
-25z m-504 -450 c-3 -25 -6 -98 -6 -161 0 -114 0 -116 -22 -111 -12 3 -64 9
-114 13 -51 3 -93 11 -93 16 0 4 40 48 89 96 48 48 101 111 117 139 16 29 31
53 33 53 2 0 0 -20 -4 -45z m-245 -286 c0 -6 11 -34 25 -63 l25 -51 -51 54
c-45 48 -49 56 -33 62 27 11 34 10 34 -2z m715 -132 c39 -114 45 -141 34 -148
-8 -5 -17 -9 -20 -9 -8 0 -69 256 -69 292 0 21 8 2 55 -135z m-1765 -266 c-32
-90 -54 -135 -87 -176 -26 -32 -91 -85 -104 -85 -4 0 8 26 27 58 39 64 70 159
79 242 l6 56 53 -10 52 -10 -26 -75z m1830 70 c10 -21 3 -78 -11 -87 -5 -3 -9
-2 -9 3 0 4 -7 29 -15 56 -13 45 -13 47 5 47 11 0 24 -9 30 -19z m-968 -63
c-15 -15 -16 -48 -2 -48 6 0 10 7 10 15 0 8 4 15 10 15 5 0 7 -7 4 -15 -4 -8
-1 -15 5 -15 6 0 11 4 11 9 0 5 9 7 20 4 11 -3 20 -9 20 -13 0 -5 9 -12 20
-15 16 -5 19 -12 14 -28 -3 -12 -8 -23 -9 -25 -1 -1 -25 3 -54 9 -59 12 -80
36 -79 89 1 37 16 56 32 40 7 -7 6 -14 -2 -22z m1076 -200 c-27 -127 -143
-486 -153 -476 -2 2 3 63 11 136 17 171 59 348 86 371 12 9 32 26 47 38 14 12
27 23 27 23 1 0 -7 -42 -18 -92z m-133 42 c-3 -5 -12 -10 -18 -10 -7 0 -6 4 3
10 19 12 23 12 15 0z m-181 -29 c3 -5 -1 -14 -9 -21 -22 -18 -19 -40 5 -35 23
4 24 1 10 -25 -16 -29 -40 -13 -40 25 0 53 18 82 34 56z m-628 -1272 c75 -45
106 -69 89 -69 -3 0 -22 11 -43 23 -20 13 -61 35 -89 48 -29 13 -53 30 -53 36
0 19 5 17 96 -38z"/>
<path d="M925 3128 c-27 -22 -68 -49 -90 -59 -22 -9 -34 -18 -27 -18 21 -1 84
35 136 78 26 23 44 41 40 41 -5 -1 -31 -19 -59 -42z"/>
<path d="M745 3040 c-13 -5 -14 -9 -5 -9 8 0 24 4 35 9 13 5 14 9 5 9 -8 0
-24 -4 -35 -9z"/>
<path d="M1979 2923 c-13 -16 -12 -17 4 -4 9 7 17 15 17 17 0 8 -8 3 -21 -13z"/>
<path d="M2681 2924 c0 -11 3 -14 6 -6 3 7 2 16 -1 19 -3 4 -6 -2 -5 -13z"/>
<path d="M1595 2575 c-21 -47 -53 -110 -72 -141 -46 -77 -36 -94 12 -20 59 93
126 246 107 246 -5 0 -26 -38 -47 -85z"/>
<path d="M2278 2202 c46 -17 92 -38 103 -48 11 -10 25 -19 32 -20 7 -1 21 -5
32 -9 16 -6 15 -3 -5 14 -32 27 -162 81 -209 88 -22 3 -4 -7 47 -25z"/>
<path d="M2250 2121 c8 -5 26 -12 40 -15 l25 -7 -25 15 c-14 9 -32 15 -40 15
-13 0 -13 -1 0 -8z"/>
<path d="M2330 2090 c20 -13 33 -13 25 0 -3 6 -14 10 -23 10 -15 0 -15 -2 -2
-10z"/>
<path d="M2739 1988 l-43 -53 49 48 c26 26 46 50 43 52 -3 3 -25 -18 -49 -47z"/>
<path d="M1191 2004 c-17 -14 -31 -31 -31 -37 0 -7 11 1 25 16 31 33 52 34 85
4 30 -27 70 -77 70 -88 0 -4 -16 -5 -36 -2 -47 8 -80 -11 -98 -59 -18 -43 -20
-62 -7 -54 4 3 11 19 14 35 9 41 33 61 75 61 54 0 66 -11 56 -51 -4 -19 -7
-41 -5 -49 3 -18 53 -72 60 -65 2 3 -8 19 -24 35 -28 29 -28 32 -18 73 10 36
9 48 -8 84 -22 46 -94 123 -114 123 -8 0 -27 -12 -44 -26z"/>
<path d="M1257 1939 c-9 -13 -32 -25 -54 -29 l-38 -8 36 -1 c26 -1 42 6 59 24
13 14 21 27 18 31 -3 3 -13 -5 -21 -17z"/>
<path d="M2740 1936 c0 -2 11 -6 25 -8 13 -3 22 -1 19 3 -5 9 -44 13 -44 5z"/>
<path d="M1278 1631 c29 -27 56 -42 80 -46 21 -3 50 -10 65 -15 23 -7 26 -6
17 5 -6 7 -33 16 -61 20 -27 4 -62 17 -77 29 -54 44 -66 47 -24 7z"/>
<path d="M2741 1544 c-12 -26 -19 -49 -16 -52 3 -3 14 16 26 42 11 26 18 50
16 53 -3 2 -15 -17 -26 -43z"/>
<path d="M1454 1438 c9 -18 32 -87 52 -153 21 -66 39 -113 41 -104 5 23 -81
282 -96 287 -8 3 -7 -6 3 -30z"/>
<path d="M2149 1338 c-35 -33 -43 -62 -27 -95 15 -30 101 -93 127 -93 9 1 -2
10 -24 21 -89 44 -119 105 -73 149 37 34 70 30 204 -22 94 -36 104 -43 114
-73 14 -44 -2 -80 -44 -93 -17 -6 -23 -10 -13 -11 30 -2 76 28 92 60 31 59 22
68 -114 122 -158 61 -206 68 -242 35z"/>
<path d="M1572 1114 c18 -17 164 -104 177 -104 8 0 -25 25 -74 55 -48 30 -92
55 -98 55 -6 0 -8 -3 -5 -6z"/>
<path d="M871 944 c0 -11 3 -14 6 -6 3 7 2 16 -1 19 -3 4 -6 -2 -5 -13z"/>
<path d="M832 828 c-10 -30 -10 -31 3 -14 13 17 21 46 12 46 -1 0 -8 -15 -15
-32z"/>
<path d="M2230 785 c19 -7 44 -14 55 -14 11 0 0 7 -25 15 -57 17 -77 17 -30
-1z"/>
<path d="M800 770 c-6 -11 -8 -20 -6 -20 3 0 10 9 16 20 6 11 8 20 6 20 -3 0
-10 -9 -16 -20z"/>
<path d="M750 690 c-6 -11 -8 -20 -6 -20 3 0 10 9 16 20 6 11 8 20 6 20 -3 0
-10 -9 -16 -20z"/>
<path d="M694 615 l-41 -43 36 15 c30 13 49 14 120 4 230 -33 653 -263 889
-487 57 -53 105 -94 107 -92 3 3 -29 35 -70 72 -41 37 -75 72 -75 77 0 6 13
27 29 47 28 36 61 111 61 135 -1 6 -12 -15 -26 -49 -14 -33 -37 -76 -52 -94
l-28 -33 -35 30 c-110 97 -425 280 -614 358 -59 24 -194 55 -243 55 l-42 0 16
25 c22 34 16 30 -32 -20z"/>
<path d="M1837 633 c-4 -3 -7 -13 -7 -22 0 -13 2 -13 13 1 6 9 19 18 27 21 10
4 8 6 -6 6 -11 1 -24 -2 -27 -6z"/>
<path d="M1791 499 c-12 -35 -21 -68 -20 -73 0 -6 11 20 25 58 13 38 22 71 20
73 -2 2 -13 -24 -25 -58z"/>
<path d="M2096 495 c-17 -17 -61 -121 -131 -310 -29 -77 -56 -149 -60 -159 -6
-13 -5 -17 2 -13 6 4 30 60 53 124 60 167 119 314 136 340 8 13 20 20 29 17 8
-4 15 -4 15 -1 0 13 -31 15 -44 2z"/>
<path d="M473 469 c-35 -22 -46 -37 -15 -20 22 13 58 40 52 41 -3 0 -20 -10
-37 -21z"/>
<path d="M404 424 c-18 -14 -18 -15 4 -4 12 6 22 13 22 15 0 8 -5 6 -26 -11z"/>
<path d="M295 367 c-44 -24 -102 -53 -130 -65 -27 -12 -39 -19 -25 -16 49 11
269 124 240 123 -3 0 -41 -19 -85 -42z"/>
<path d="M1755 390 c-4 -12 -5 -24 -2 -27 3 -2 8 5 12 17 4 12 5 24 2 27 -3 2
-8 -5 -12 -17z"/>
<path d="M2211 383 c-11 -28 -11 -28 6 -6 10 11 27 23 38 26 16 4 15 5 -6 6
-19 1 -29 -6 -38 -26z"/>
<path d="M2156 276 c-20 -42 -36 -79 -36 -83 0 -3 -10 -20 -23 -37 -29 -38
-40 -56 -34 -56 2 0 17 19 33 41 l28 41 81 -84 c44 -46 64 -66 44 -44 -66 76
-109 133 -109 147 0 8 14 43 30 78 17 35 28 66 26 68 -3 3 -21 -29 -40 -71z"/>
<path d="M54 261 c-23 -10 -44 -23 -47 -28 -5 -8 90 32 102 43 11 10 -18 2
-55 -15z"/>
<path d="M305 240 c130 -26 228 -70 340 -153 l40 -29 -40 36 c-95 84 -239 146
-370 159 -51 5 -46 3 30 -13z"/>
<path d="M2313 210 c0 -25 2 -35 4 -22 2 12 2 32 0 45 -2 12 -4 2 -4 -23z"/>
<path d="M796 150 c10 -37 32 -90 38 -90 6 0 -20 75 -34 98 -9 14 -10 13 -4
-8z"/>
<path d="M2322 125 c0 -16 3 -50 7 -75 6 -33 9 -37 9 -15 0 17 -3 50 -7 75 -6
33 -9 37 -9 15z"/>
</g>
</svg>
