<?xml version="1.0" standalone="no"?><!DOCTYPE svg PUBLIC "-//W3C//DTD SVG 1.1//EN" "http://www.w3.org/Graphics/SVG/1.1/DTD/svg11.dtd"><svg t="1686685739460" class="icon" viewBox="0 0 1024 1024" version="1.1" xmlns="http://www.w3.org/2000/svg" p-id="13273" xmlns:xlink="http://www.w3.org/1999/xlink" width="200" height="200"><path d="M289.240969 49.280574l121.924879 272.576861h234.886313L502.416646 0.454601C426.952897 3.8113 354.983605 20.847354 289.240969 49.280574z" fill="#177BC0" p-id="13274"></path><path d="M528.530942 59.323121L411.161256 322.008969l-10.777256-24.034153L517.597561 34.678242z" fill="#136DA0" p-id="13275"></path><path d="M641.492377 389.395516H415.569507c-25.053561 0-45.551928-20.535103-45.551929-45.634583s20.498368-45.634583 45.551929-45.634583h225.775928c25.048969 0 45.551928 20.535103 45.551928 45.634583 0.146942 25.09948-20.351426 45.629991-45.400394 45.629991zM415.569507 320.939049a22.76678 22.76678 0 0 0-22.775964 22.817292A22.76678 22.76678 0 0 0 415.569507 366.573632h225.775928c12.600251 0 22.775964-10.194081 22.775964-22.821883a22.76678 22.76678 0 0 0-22.775964-22.8127H415.564915z" fill="#EF5A9D" p-id="13276"></path><path d="M619.175605 410.688287H437.886278v-34.5313c0-17.036054 13.817112-30.876126 30.821022-30.876126h119.495749c17.00391 0 30.821022 13.844664 30.821023 30.876126v34.5313h0.151533z" fill="#E7AD27" p-id="13277"></path><path d="M215.903283 709.27383a313.187874 312.627659 90 1 0 625.255318 0 313.187874 312.627659 90 1 0-625.255318 0Z" fill="#FFC733" p-id="13278"></path><path d="M270.262529 709.27383a258.732197 258.268413 90 1 0 516.536825 0 258.732197 258.268413 90 1 0-516.536825 0Z" fill="#FEDE3A" p-id="13279"></path><path d="M528.530942 465.295498c102.941848 0 192.525776 57.950135 237.921578 142.97887-39.325274-92.784502-131.030673-157.732735-237.921578-157.732736-106.890906 0-198.600897 65.099767-237.921579 157.732736 45.395803-85.180269 134.979731-142.97887 237.921579-142.97887z" fill="#E7AD27" p-id="13280"></path><path d="M716.653058 672.308807v-24.33722l-33.401686 24.33722h-110.385363L528.530942 535.418834l-44.335068 136.894565H373.810511l-33.401686-24.33722v24.33722l36.441543 26.467875L456.713184 756.887534l-34.163946 105.104645-10.322655 7.604234v24.337219l38.719139-28.29087 77.58522-56.434798 116.304358 84.725668v-24.337219l-10.322654-7.604234-34.163946-105.109237z" fill="#E7AD27" p-id="13281"></path><path d="M528.530942 511.081614l44.335067 136.889973h143.787049L600.3487 732.550314l44.4866 137.046099-116.304358-84.721077-116.304359 84.721077 44.486601-137.046099-116.304359-84.574135h143.787049zM830.220628 728.739013l8.201184 26.619409a26.463283 26.463283 0 0 0 17.463103 17.495246l26.568897 8.21496c2.277596 0.757668 2.277596 3.949058 0 4.559785l-26.568897 8.214959a26.463283 26.463283 0 0 0-17.463103 17.495247l-8.196592 26.614816c-0.76226 2.282188-3.949058 2.282188-4.555193 0l-8.201184-26.619408a26.463283 26.463283 0 0 0-17.458511-17.490655l-26.573489-8.214959c-2.277596-0.757668-2.277596-3.949058 0-4.559785l26.573489-8.219552a26.463283 26.463283 0 0 0 17.458511-17.490654l8.201184-26.614817c0.606135-2.282188 3.792933-2.282188 4.555193 0zM919.781596 115.845166l5.02357 16.278386a16.195731 16.195731 0 0 0 10.699193 10.699192l16.273793 5.018978c1.395946 0.463785 1.395946 2.419946 0 2.791892l-16.278385 5.02357a16.195731 16.195731 0 0 0-10.699193 10.699193l-5.018978 16.273793c-0.463785 1.395946-2.419946 1.395946-2.791892 0l-5.023569-16.278385a16.195731 16.195731 0 0 0-10.699193-10.699193l-16.273794-5.018978c-1.395946-0.463785-1.395946-2.419946 0-2.791892l16.278386-5.02357a16.195731 16.195731 0 0 0 10.699192-10.699192l5.018978-16.273794c0.371946-1.395946 2.328108-1.395946 2.791892 0zM129.66687 906.322655l8.201184 26.614816a26.463283 26.463283 0 0 0 17.458511 17.495246l26.573489 8.21496c2.277596 0.757668 2.277596 3.949058 0 4.559785l-26.573489 8.21496a26.463283 26.463283 0 0 0-17.458511 17.495246l-8.201184 26.614816c-0.757668 2.282188-3.949058 2.282188-4.555193 0l-8.196592-26.619408a26.463283 26.463283 0 0 0-17.463103-17.490654l-26.568897-8.21496c-2.277596-0.757668-2.277596-3.949058 0-4.559785l26.568897-8.219551a26.463283 26.463283 0 0 0 17.463103-17.490655l8.196592-26.614816c0.610726-2.282188 3.797525-2.282188 4.555193 0zM360.907193 468.638422l8.196592 26.619408a26.463283 26.463283 0 0 0 17.463103 17.495246l26.568897 8.210368c2.277596 0.76226 2.277596 3.95365 0 4.564377l-26.568897 8.214959a26.463283 26.463283 0 0 0-17.463103 17.495247l-8.196592 26.614816c-0.757668 2.282188-3.949058 2.282188-4.555193 0l-8.201184-26.619408a26.463283 26.463283 0 0 0-17.458511-17.495247l-26.573489-8.210367c-2.277596-0.76226-2.277596-3.95365 0-4.564377l26.573489-8.210368a26.463283 26.463283 0 0 0 17.458511-17.495246l8.201184-26.619408c0.757668-2.282188 3.949058-2.282188 4.555193 0z" fill="#FFFFFF" p-id="13282"></path><path d="M411.161256 322.008969h234.890905l121.920287-272.576861C702.229812 20.994296 630.412054 3.958242 554.952897 0.610726L411.161256 322.008969z" fill="#1CAEE4" p-id="13283"></path><path d="M572.108341 322.008969l131.788341-296.151821 21.109094 6.841973-130.732198 289.309848z" fill="#177BC0" p-id="13284"></path></svg>